<?xml version="1.0" encoding="UTF-8" standalone="no"?>
<svg
   xmlns:dc="http://purl.org/dc/elements/1.1/"
   xmlns:cc="http://creativecommons.org/ns#"
   xmlns:rdf="http://www.w3.org/1999/02/22-rdf-syntax-ns#"
   xmlns:svg="http://www.w3.org/2000/svg"
   xmlns="http://www.w3.org/2000/svg"
   xmlns:sodipodi="http://sodipodi.sourceforge.net/DTD/sodipodi-0.dtd"
   xmlns:inkscape="http://www.inkscape.org/namespaces/inkscape"
   inkscape:version="1.0 (4035a4f, 2020-05-01)"
   sodipodi:docname="icon_pkpdapp.svg"
   xml:space="preserve"
   enable-background="new 0 0 149.167 172.243"
   viewBox="0 0 149.167 172.243"
   height="172.243px"
   width="149.167px"
   y="0px"
   x="0px"
   id="Layer_1"
   version="1.1"><metadata
   id="metadata32"><rdf:RDF><cc:Work
       rdf:about=""><dc:format>image/svg+xml</dc:format><dc:type
         rdf:resource="http://purl.org/dc/dcmitype/StillImage" /><dc:title /></cc:Work></rdf:RDF></metadata><defs
   id="defs30" /><sodipodi:namedview
   inkscape:current-layer="Layer_1"
   inkscape:window-maximized="0"
   inkscape:window-y="23"
   inkscape:window-x="0"
   inkscape:cy="61.977609"
   inkscape:cx="82.139003"
   inkscape:zoom="1.2277412"
   showguides="false"
   showgrid="false"
   id="namedview28"
   inkscape:window-height="776"
   inkscape:window-width="1440"
   inkscape:pageshadow="2"
   inkscape:pageopacity="0"
   guidetolerance="10"
   gridtolerance="10"
   objecttolerance="10"
   borderopacity="1"
   bordercolor="#666666"
   pagecolor="#ffffff"
   inkscape:document-rotation="0" />
<path
   d="M 75.6414,31.810546 A 54.440388,54.440388 0 0 0 21.2,86.251953 54.440388,54.440388 0 0 0 75.6414,140.6914 54.440388,54.440388 0 0 0 130.08086,86.251953 54.440388,54.440388 0 0 0 75.6414,31.810546 Z M 75.36406,38.9375 c 5.63724,-8.64e-4 10.93921,2.19507 14.92578,6.18164 3.98657,3.986569 6.18273,9.288767 6.1836,14.927734 l 0.002,26.738282 -0.002,26.736324 c 4.3e-4,5.6394 -2.19378,10.93987 -6.18165,14.92774 -3.98743,3.98743 -9.28962,6.18364 -14.92773,6.18164 -5.63724,8.7e-4 -10.93921,-2.19507 -14.92578,-6.18164 -3.98657,-3.98656 -6.18273,-9.28877 -6.18359,-14.92774 V 86.783203 60.046874 c -8.7e-4,-5.638969 2.1942,-10.940301 6.18164,-14.927734 3.98743,-3.987433 9.28963,-6.18334 14.92773,-6.18164 z m 0,5.626953 c -4.13596,-4.33e-4 -8.02286,1.608798 -10.94726,4.533203 -2.92311,2.92311 -4.53277,6.813255 -4.53321,10.949218 l -0.002,23.921876 30.96484,0.002 -0.002,-23.925782 C 90.84356,55.9103 89.23238,52.020814 86.30927,49.097703 83.38616,46.174593 79.49992,44.564932 75.36396,44.5645 Z m -15.48242,45.033203 0.002,23.923824 c 10e-4,4.1351 1.61205,8.02416 4.53516,10.94727 2.92311,2.92311 6.80935,4.53276 10.94531,4.5332 4.13596,4.3e-4 8.02329,-1.60922 10.94727,-4.5332 2.92354,-2.92354 4.5332,-6.81173 4.5332,-10.94727 l 0.002,-23.921871 z"
   style="fill:none;stroke-width:0.514429"
   id="path56" />

<g
   transform="matrix(1.2364859,0,0,1.2364859,-18.20836,-19.995201)"
   id="g88"><path
     id="path75"
     style="fill:#ffffff;stroke-width:0.514429"
     d="m 74.400391,38.873047 c -2.009841,0.04109 -3.888437,0.291641 -5.640625,0.755859 -1.752189,0.464219 -3.378064,1.141746 -4.882813,2.035156 -1.504749,0.893412 -2.886775,2.003366 -4.154297,3.332032 -1.267521,1.328665 -2.420431,2.8765 -3.460937,4.646484 l -2.222657,3.783203 v 33.394531 c 0,16.459578 0.0056,24.820878 0.234376,29.482418 0.11439,2.33078 0.28455,3.73641 0.537109,4.76758 0.252559,1.03118 0.588493,1.68606 1.033203,2.51758 0.58947,1.10219 1.370995,2.21684 2.285156,3.29102 0.914161,1.07417 1.959415,2.10967 3.076172,3.05273 1.116757,0.94306 2.304693,1.79311 3.501953,2.50195 1.19726,0.70884 2.404879,1.27498 3.560547,1.64649 1.166969,0.37515 2.500083,0.62345 3.910156,0.75 1.410073,0.12655 2.896324,0.13217 4.369141,0.0234 1.472817,-0.10874 2.931908,-0.33141 4.287109,-0.66211 1.355202,-0.33071 2.606837,-0.76924 3.664063,-1.3086 1.073201,-0.5475 2.119822,-1.20899 3.117187,-1.96289 0.997366,-0.7539 1.945927,-1.60039 2.824219,-2.51562 0.878292,-0.91523 1.686365,-1.90014 2.402344,-2.93164 0.715979,-1.03151 1.339182,-2.11017 1.849609,-3.21289 0.407915,-0.88126 0.719144,-1.63119 0.955078,-2.73047 0.235935,-1.09929 0.397191,-2.54761 0.507813,-4.82618 0.221244,-4.55713 0.238281,-12.43478 0.238281,-27.476558 0,-8.845742 -2.7e-5,-15.477139 -0.0918,-20.548828 C 96.209008,61.606006 96.026231,58.094169 95.6582,55.492148 95.474185,54.191135 95.242748,53.117581 94.955075,52.189413 94.667403,51.261246 94.322591,50.478098 93.9082,49.759726 93.079418,48.322981 91.974021,47.144176 90.499997,45.568319 89.383158,44.374328 88.237194,43.350455 87.041013,42.488241 85.844831,41.626028 84.598375,40.925791 83.2832,40.378866 81.968025,39.831942 80.583192,39.437538 79.109372,39.189413 77.635552,38.941288 76.072503,38.838821 74.400388,38.873007 Z m -0.88086,6.318359 c 1.043444,-0.11281 2.095951,-0.107086 3.142578,0.01953 1.046628,0.126617 2.087435,0.37466 3.105469,0.74414 1.018034,0.369481 2.01304,0.860783 2.970703,1.476563 0.957663,0.615779 1.878627,1.355189 2.744141,2.220703 1.015719,1.015719 1.823062,1.985599 2.46289,3.095703 0.639829,1.110104 1.111565,2.360956 1.457032,3.9375 0.345466,1.576544 0.564633,3.479492 0.697265,5.894531 0.132632,2.415039 0.178362,5.343162 0.179688,8.96875 l 0.0039,12.419922 H 75.164062 60.044922 l 0.253906,-14.519531 c 0.120325,-6.850565 0.21107,-10.521048 0.498047,-12.806641 0.143488,-1.142796 0.337644,-1.939684 0.607422,-2.615234 0.269777,-0.675551 0.615875,-1.229084 1.068359,-1.886719 0.71293,-1.036165 1.498572,-1.961005 2.341797,-2.771484 0.843225,-0.81048 1.743805,-1.506532 2.685547,-2.087891 0.941742,-0.581359 1.925112,-1.047682 2.933594,-1.396484 1.008481,-0.348803 2.042494,-0.580549 3.085937,-0.69336 z M 60.146484,89.669922 h 15.06836 15.068359 l -0.0039,12.421878 c -0.0012,3.41582 -0.0967,6.86174 -0.25,9.66211 -0.153302,2.80036 -0.364356,4.95606 -0.595703,5.78906 -0.274955,0.99002 -0.653352,1.93137 -1.119141,2.81836 -0.465788,0.88699 -1.019433,1.71882 -1.646484,2.48633 -0.627052,0.7675 -1.327195,1.47195 -2.085938,2.10351 -0.758742,0.63156 -1.574684,1.19077 -2.435547,1.66992 -0.860862,0.47916 -1.765807,0.87721 -2.699218,1.1875 -0.933412,0.31029 -1.896658,0.53324 -2.873047,0.65821 -0.976389,0.12496 -1.967236,0.15299 -2.957031,0.0762 -0.989796,-0.0768 -1.977543,-0.25963 -2.951172,-0.55469 -0.903978,-0.27395 -1.759066,-0.62371 -2.564454,-1.04883 -0.805386,-0.42511 -1.561048,-0.92625 -2.269531,-1.5039 -0.708482,-0.57766 -1.369158,-1.23133 -1.982422,-1.96289 -0.613263,-0.73157 -1.179488,-1.54089 -1.699218,-2.42774 -0.479235,-0.81775 -0.843468,-1.47778 -1.121094,-2.2168 -0.277626,-0.739 -0.469059,-1.55553 -0.599609,-2.68945 -0.261103,-2.26784 -0.283204,-5.80081 -0.283204,-12.49023 z" /><path
     id="path57"
     style="fill:#ffffff;stroke-width:0.514429"
     d="M 75.257812,26.000001 A 60.273285,60.273285 0 0 0 15,86.273439 60.273285,60.273285 0 0 0 75.273438,146.54687 60.273285,60.273285 0 0 0 135.54688,86.273439 60.273285,60.273285 0 0 0 75.273438,26.000001 a 60.273285,60.273285 0 0 0 -0.01563,0 z m -0.449218,7.023438 c 4.573088,-0.01038 7.561747,0.06016 10,0.320312 2.438253,0.260151 4.326035,0.709625 6.697265,1.460938 2.087461,0.661401 4.133105,1.467013 6.125,2.402344 1.991895,0.93533 3.929241,1.999883 5.800781,3.183593 1.87154,1.183711 3.67791,2.486036 5.4043,3.892578 1.72638,1.406543 3.37325,2.91766 4.92968,4.521485 1.55644,1.603825 3.02112,3.300613 4.38282,5.076172 1.36169,1.775558 2.62151,3.63099 3.76367,5.552734 1.14216,1.921744 2.16662,3.908791 3.06445,5.951172 0.89784,2.04238 1.66816,4.139875 2.29688,6.277344 0.57469,1.95383 1.0199,3.94746 1.33984,5.96875 0.31995,2.021289 0.51532,4.069279 0.58594,6.130859 0.0706,2.06158 0.017,4.136237 -0.15625,6.210937 -0.17327,2.074701 -0.46717,4.150285 -0.87891,6.210938 -0.41173,2.060653 -0.94116,4.107515 -1.58594,6.126945 -0.64477,2.01944 -1.40496,4.01184 -2.27734,5.96289 -0.87238,1.95106 -1.85661,3.85935 -2.95117,5.71485 -1.09456,1.8555 -2.30002,3.65785 -3.61133,5.39062 -1.55398,2.05344 -3.27515,3.9731 -5.13867,5.75196 -1.86352,1.77885 -3.86919,3.41653 -5.98828,4.90234 -2.1191,1.48581 -4.35117,2.81983 -6.671877,3.99414 -2.320709,1.17431 -4.728901,2.18886 -7.197265,3.0332 -2.468365,0.84435 -4.996536,1.5197 -7.558594,2.01563 -2.562059,0.49593 -5.157973,0.81235 -7.759766,0.9414 -2.601793,0.12906 -5.211262,0.0707 -7.798828,-0.18554 -2.587566,-0.25628 -5.154449,-0.71102 -7.673828,-1.3711 -2.196769,-0.57555 -4.342504,-1.29167 -6.4375,-2.14648 -2.094996,-0.85481 -4.137593,-1.84775 -6.125,-2.97852 -1.987408,-1.13076 -3.920918,-2.39932 -5.794922,-3.80273 -1.874004,-1.40341 -3.688574,-2.94249 -5.443359,-4.61523 -1.772871,-1.68999 -3.371821,-3.3797 -4.81836,-5.10743 -1.446538,-1.72772 -2.7423,-3.49342 -3.910156,-5.33398 -1.167856,-1.84056 -2.207709,-3.75471 -3.144531,-5.7832 -0.936822,-2.0285 -1.77,-4.17138 -2.523438,-6.46289 -0.770722,-2.3441 -1.349014,-4.91459 -1.734375,-7.599609 -0.385361,-2.685019 -0.578125,-5.484543 -0.578125,-8.283204 0,-2.79866 0.192764,-5.596231 0.578125,-8.28125 0.385361,-2.685018 0.963653,-5.25747 1.734375,-7.601562 0.727472,-2.212549 1.544595,-4.315963 2.460938,-6.326172 0.916343,-2.010208 1.931634,-3.927335 3.05664,-5.767578 1.125007,-1.840243 2.359428,-3.602035 3.712891,-5.304688 1.353463,-1.702652 2.826023,-3.345921 4.427734,-4.943359 1.556999,-1.552845 3.088114,-2.946959 4.640625,-4.212891 1.552512,-1.265931 3.127066,-2.403896 4.767578,-3.441406 1.640513,-1.03751 3.346967,-1.974215 5.167969,-2.841797 1.821002,-0.867581 3.755629,-1.665729 5.84961,-2.421875 2.664852,-0.962289 4.454659,-1.502487 6.804687,-1.804687 2.350029,-0.302201 5.261116,-0.365815 10.166016,-0.376953 z" /></g></svg>
