<svg width="164" height="124" viewBox="0 0 164 124" fill="none" xmlns="http://www.w3.org/2000/svg">
<path d="M129.29 123.99H19.8H18.45C17.48 123.91 16.12 123.51 14.92 122.43C13.92 121.52 13.22 120.28 13.02 118.86L12.86 117.78C12.86 117.78 12.86 117.77 12.86 117.76L12.82 117.46L0.0400404 30.5401C-0.24996 28.5701 1.18004 26.8 3.05004 26.8H54.57C55.3 26.8 56 27.06 56.55 27.55L71.97 41.07C72.52 41.55 73.22 41.82 73.95 41.82L119.71 34.2001C121.21 34.2001 122.49 35.36 122.72 36.94L124.48 48.92L134.56 117.47C135.06 120.89 132.56 123.99 129.29 123.99Z" fill="#999999"/>
<path d="M131.61 116.18H22.7L8.92004 11.62H118.21L131.61 116.18Z" fill="#B2B2B2"/>
<path d="M130.06 124H22.53L25.9 0H134.01L130.06 124Z" fill="url(#paint0_linear_187_9345)"/>
<path d="M131.61 120.45H22.3201L39.7001 18.89H148.98L131.61 120.45Z" fill="white"/>
<path d="M161.75 38.8101C163.31 38.8101 164.4 40.35 163.87 41.82L161.45 48.92L134.41 121.95C133.99 123.16 132.84 123.96 131.56 123.96C130.96 123.96 130.38 123.97 130.02 124H18.6701C17.4901 124 16.4601 123.63 15.5801 122.95C16.2501 123.15 16.7401 123.17 17.1301 123.17C18.9101 123.17 20.5401 121.99 21.2301 120.48L21.3601 120.17C21.3801 120.13 21.3901 120.09 21.4001 120.07L22.2801 117.92L49.5801 50.8001C50.0401 49.6701 51.1401 48.93 52.3601 48.93L96.4301 48.92C96.4701 48.92 96.5201 48.9201 96.5701 48.9101C97.2501 48.8901 97.9101 48.62 98.4201 48.17L108.96 39.5401C109.51 39.0601 110.21 38.8 110.93 38.8H161.75V38.8101Z" fill="url(#paint1_linear_187_9345)"/>
<path d="M137.72 116.5C152.234 116.5 164 104.734 164 90.2199C164 75.7059 152.234 63.9399 137.72 63.9399C123.206 63.9399 111.44 75.7059 111.44 90.2199C111.44 104.734 123.206 116.5 137.72 116.5Z" fill="#999999"/>
<path d="M137.72 78.2V102.23" stroke="white" stroke-width="4" stroke-miterlimit="10"/>
<path d="M149.74 90.22H125.71" stroke="white" stroke-width="4" stroke-miterlimit="10"/>
<defs>
<linearGradient id="paint0_linear_187_9345" x1="22.5327" y1="62" x2="134.008" y2="62" gradientUnits="userSpaceOnUse">
<stop stop-color="#CBCDD1"/>
<stop offset="1" stop-color="#E4E5EA"/>
</linearGradient>
<linearGradient id="paint1_linear_187_9345" x1="15.5823" y1="81.4027" x2="164" y2="81.4027" gradientUnits="userSpaceOnUse">
<stop stop-color="#CBCDD1"/>
<stop offset="1" stop-color="#E4E5EA"/>
</linearGradient>
</defs>
</svg>
