<?xml version="1.0" encoding="UTF-8"?>
<svg version="1.1" viewBox="0 0 62 62" xmlns="http://www.w3.org/2000/svg">
<path d="m35.271 51.911c1.951-0.995 3.705-2.823 4.633-4.828 0.742-1.603 0.774-2.25 0.774-15.924 0-16.083 1e-3 -16.071-2.679-18.936-2.03-2.171-4.277-3.106-7.318-3.043-3.654 0.074-5.218 1.422-6.52 2.544-1.303 1.122-2.645 3.11-2.735 5.01-0.233 4.913 0 14.24 0 14.24 0 14.963 0.011 15.2 0.82 16.713 1.072 2.004 3.546 4.093 5.647 4.769 2.122 0.682 5.456 0.435 7.378-0.545z" fill="none" stroke="#585858" stroke-width=".5"/>
<path d="m30.681 9.18c-3.654 0.074-5.219 1.422-6.521 2.544-1.303 1.122-2.645 3.11-2.735 5.01-0.233 4.912 0 14.238 0 14.238 0 14.963 0.012 15.203 0.82 16.715 1.072 2.004 3.548 4.092 5.649 4.767 2.122 0.682 5.455 0.436 7.377-0.545 1.951-0.995 3.705-2.823 4.633-4.828 0.741-1.602 0.773-2.25 0.773-15.924 0-16.083 2e-3 -16.07-2.678-18.936-2.03-2.17-4.278-3.105-7.318-3.043zm-6.531 23.09h13.699l-2e-3 5.646c-1e-3 3.105-0.175 6.264-0.385 7.021-1 3.6-4.99 5.823-8.531 4.75-1.644-0.498-2.926-1.544-3.871-3.156-0.872-1.487-0.91-1.827-0.91-7.908z" fill="none" stroke="#585858" stroke-width=".5"/>
<rect x="1" y="1" width="60" height="60" ry="10.737" fill="none" stroke="#585858" stroke-width="2"/>
<circle cx="31" cy="31.124" r="27.397" fill="none" stroke="#585858" stroke-width=".5"/>
<circle cx="31" cy="31.124" r="24.746" fill="none" stroke="#585858" stroke-width=".5"/>
<path d="m31 52.745a9.53 9.53 0 0 0 6.785-2.81 9.532 9.532 0 0 0 2.81-6.786v-24.307c0-2.564-0.998-4.974-2.81-6.786s-4.222-2.81-6.785-2.81-4.973 0.998-6.785 2.81-2.81 4.222-2.81 6.786v24.307c0 2.563 0.999 4.973 2.81 6.785a9.53 9.53 0 0 0 6.785 2.81zm-7.037-33.903c0-1.88 0.732-3.647 2.061-4.976 1.33-1.33 3.096-2.06 4.976-2.06s3.647 0.731 4.975 2.06a6.995 6.995 0 0 1 2.062 4.976v10.875h-14.074zm0 24.308v-10.875h14.074v10.875c0 1.88-0.732 3.647-2.061 4.976a6.99 6.99 0 0 1-4.976 2.06c-1.88 0-3.646-0.732-4.975-2.06s-2.061-3.097-2.062-4.976z" fill="#fff"/>
<path d="m30.683 9.18c-3.654 0.074-5.219 1.422-6.521 2.544-1.303 1.122-2.645 3.11-2.735 5.01-0.233 4.912 0 14.238 0 14.238 0 14.963 0.012 15.203 0.82 16.715 1.072 2.004 3.548 4.092 5.649 4.768 2.122 0.682 5.455 0.435 7.377-0.545 1.951-0.996 3.705-2.824 4.633-4.828 0.741-1.603 0.773-2.25 0.773-15.924 0-16.083 2e-3 -16.07-2.678-18.936-2.03-2.171-4.278-3.106-7.318-3.043zm0.285 2.835c1.67 0.01 3.348 0.688 4.725 2.065 1.847 1.846 2.177 3.359 2.18 9.95l1e-3 5.647h-13.744l0.116-6.6c0.109-6.227 0.165-6.67 0.988-7.867 1.458-2.119 3.588-3.208 5.734-3.195zm-6.816 20.255h13.698l-2e-3 5.647c0 3.105-0.174 6.264-0.385 7.021-1 3.6-4.99 5.823-8.531 4.75-1.644-0.498-2.926-1.544-3.871-3.156-0.871-1.487-0.91-1.827-0.91-7.908z" fill="#2843ba" fill-rule="evenodd" stroke="#585858" stroke-width=".37"/>
<path d="m24.245 23.077c0.11-6.228 0.165-6.672 0.988-7.867 2.592-3.768 7.311-4.278 10.459-1.131 1.847 1.847 2.178 3.36 2.18 9.952l3e-3 5.646h-13.745z" fill="none" stroke="#585858" stroke-width=".37"/>
<path d="m28.932 49.686c-1.644-0.498-2.926-1.543-3.87-3.156-0.872-1.487-0.911-1.826-0.911-7.907v-6.354h13.698l-2e-3 5.646c-1e-3 3.105-0.174 6.265-0.385 7.023-1 3.6-4.99 5.821-8.53 4.748z" fill="#2843ba" stroke="#2843ba" stroke-width=".37"/>
<path d="M 31,3.727 A 27.397,27.397 0 0 0 3.604,31.125 27.397,27.397 0 0 0 31,58.521 27.397,27.397 0 0 0 58.396,31.125 27.397,27.397 0 0 0 31,3.727 Z m 0,2.652 A 24.746,24.746 0 0 1 55.746,31.125 24.746,24.746 0 0 1 31,55.87 24.746,24.746 0 0 1 6.254,31.125 24.746,24.746 0 0 1 31,6.38 Z" fill="#2843ba" stroke="#585858" stroke-width=".5"/>
</svg>
