<svg width="62" height="32" viewBox="0 0 62 32" fill="none" xmlns="http://www.w3.org/2000/svg">
<path d="M50.3101 14.0837C50.033 13.5142 49.6405 13.0832 49.1403 12.7754C48.64 12.4675 48.0628 12.3136 47.4163 12.3136C46.7698 12.3136 46.1926 12.4675 45.6924 12.7754C45.1921 13.0832 44.7996 13.5219 44.5225 14.0837C44.2455 14.6532 44.1069 15.315 44.1069 16.0693V17.7701C44.1069 18.5243 44.2455 19.1861 44.5225 19.7556C44.7996 20.3251 45.1921 20.7561 45.6924 21.064C46.1926 21.3718 46.7698 21.518 47.4163 21.518C48.0628 21.518 48.64 21.3641 49.1403 21.064C49.6405 20.7561 49.9484 20.4098 50.2254 19.8403C50.3563 19.5709 50.4717 19.2323 50.5333 18.886L48.9479 18.5243C48.8786 18.8629 48.7631 19.1861 48.5861 19.4093C48.3014 19.7787 47.8858 19.9403 47.4163 19.9403C46.9468 19.9403 46.5312 19.771 46.2465 19.4093C45.9617 19.0399 45.8232 18.5166 45.8232 17.8701V17.2313H50.7334V16.0616C50.7257 15.3073 50.5871 14.6532 50.3101 14.0837ZM47.4163 13.8913C47.8858 13.8913 48.3014 14.0529 48.5861 14.4146C48.8401 14.7378 48.9786 15.2304 49.0094 15.7922H45.8232C45.8463 15.2304 45.9848 14.7378 46.2465 14.4146C46.5235 14.0529 46.9391 13.8913 47.4163 13.8913Z" fill="#0B41CD"/>
<path d="M38.0806 21.318V15.5152C38.0806 15.0304 38.2192 14.6379 38.4885 14.3531C38.7656 14.0684 39.1042 13.9221 39.5275 13.9221C39.9431 13.9221 40.2894 14.0684 40.5665 14.3531C40.8436 14.6379 40.9744 15.0227 40.9744 15.5152V21.318H42.6907V15.1535C42.6907 14.2608 42.4598 13.5681 41.998 13.0679C41.5362 12.5677 40.9051 12.3214 40.1047 12.3214C39.666 12.3214 39.2735 12.406 38.9041 12.583C38.5424 12.7601 38.2499 12.9909 38.0883 13.2372V8.82739H36.3721V21.318H38.0806Z" fill="#0B41CD"/>
<path d="M30.2305 17.8547C30.2305 18.5012 30.3768 19.0245 30.6615 19.3862C30.954 19.7479 31.3696 19.9096 31.839 19.9096C32.6856 19.9096 33.2167 19.3631 33.4168 18.278L35.0099 18.6474C34.879 19.5555 34.5481 20.2636 34.0171 20.7638C33.486 21.2641 32.7626 21.518 31.839 21.518C30.8385 21.518 30.0304 21.1794 29.4224 20.5022C28.8144 19.8249 28.5066 18.9014 28.5066 17.747V16.0846C28.5066 14.9302 28.8067 14.0067 29.4224 13.3295C30.0304 12.6522 30.8385 12.3136 31.839 12.3136C32.7626 12.3136 33.486 12.5676 34.0171 13.0678C34.5481 13.568 34.879 14.2761 35.0099 15.1842L33.4168 15.5536C33.2167 14.4685 32.6933 13.9221 31.839 13.9221C31.3696 13.9221 30.9463 14.0837 30.6615 14.4454C30.3691 14.8071 30.2305 15.3227 30.2305 15.9769V17.8547Z" fill="#0B41CD"/>
<path d="M23.8811 19.9097C23.4117 19.9097 22.9961 19.7404 22.7113 19.3786C22.4266 19.0092 22.288 18.4859 22.288 17.8394V15.977C22.288 15.3305 22.4266 14.8072 22.7113 14.4455C22.9961 14.0838 23.4117 13.9222 23.8811 13.9222C24.3506 13.9222 24.7662 14.0838 25.051 14.4455C25.3357 14.8072 25.4743 15.3229 25.4743 15.977V17.8394C25.4743 18.4859 25.3357 19.0092 25.051 19.3786C24.7662 19.7481 24.3506 19.9097 23.8811 19.9097ZM23.8811 21.5258C24.5276 21.5258 25.1048 21.3719 25.6051 21.0718C26.1053 20.7639 26.4979 20.3253 26.7749 19.7634C27.052 19.1939 27.1905 18.5321 27.1905 17.7779V16.0771C27.1905 15.3229 27.052 14.661 26.7749 14.0915C26.4979 13.522 26.1053 13.091 25.6051 12.7832C25.1048 12.4753 24.5276 12.3214 23.8811 12.3214C23.2347 12.3214 22.6574 12.4753 22.1572 12.7832C21.6569 13.091 21.2644 13.5297 20.9874 14.0915C20.7103 14.661 20.5718 15.3229 20.5718 16.0771V17.7779C20.5718 18.5321 20.7103 19.1939 20.9874 19.7634C21.2644 20.333 21.6569 20.7639 22.1572 21.0718C22.6574 21.3719 23.2347 21.5258 23.8811 21.5258Z" fill="#0B41CD"/>
<path d="M14.692 14.0992V10.459H16.4236C16.8854 10.459 17.2471 10.6052 17.5011 10.9053C17.755 11.2055 17.8859 11.6595 17.8859 12.2829C17.8859 12.8986 17.755 13.3604 17.5011 13.6605C17.2471 13.9606 16.8854 14.1069 16.4236 14.1069L14.692 14.0992ZM14.692 21.318V15.7461H16.1619C16.5852 15.7461 16.8623 15.8462 17.047 16.0386C17.2317 16.231 17.3318 16.5388 17.3856 16.9775L17.8705 21.318H19.5944L19.0788 16.8159C19.0172 16.2771 18.948 15.9231 18.7325 15.6076C18.5324 15.3228 18.2476 15.0843 17.9167 14.9765C18.44 14.7302 18.8556 14.3762 19.1558 13.9299C19.4559 13.4835 19.6098 12.8678 19.6098 12.0828C19.6098 11.0746 19.3251 10.2743 18.7632 9.68936C18.1937 9.10446 17.4164 8.81201 16.4313 8.81201H12.9834V21.318H14.692Z" fill="#0B41CD"/>
<path d="M61.5696 16L47.6626 32H13.907L0 16L13.907 0H47.6549L61.5696 16ZM46.916 30.3761L59.4147 16L46.916 1.62386H14.6459L2.15494 16L14.6459 30.3761H46.916Z" fill="#0B41CD"/>
</svg>
