<svg viewBox="0 0 144.1 62" xmlns="http://www.w3.org/2000/svg"><path d="M35.271 51.911c1.951-.995 3.705-2.823 4.633-4.828.742-1.603.774-2.25.774-15.924 0-16.083.001-16.071-2.679-18.936-2.03-2.171-4.277-3.106-7.318-3.043-3.654.074-5.218 1.422-6.52 2.544-1.303 1.122-2.645 3.11-2.735 5.01-.233 4.913 0 14.24 0 14.24 0 14.963.011 15.2.82 16.713 1.072 2.004 3.546 4.093 5.647 4.769 2.122.682 5.456.435 7.378-.545z" fill="none" stroke="#585858" stroke-width=".5"/><path d="M30.681 9.18c-3.654.074-5.219 1.422-6.521 2.544-1.303 1.122-2.645 3.11-2.735 5.01-.233 4.912 0 14.238 0 14.238 0 14.963.012 15.203.82 16.715 1.072 2.004 3.548 4.092 5.649 4.767 2.122.682 5.455.436 7.377-.545 1.951-.995 3.705-2.823 4.633-4.828.741-1.602.773-2.25.773-15.924 0-16.083.002-16.07-2.678-18.936-2.03-2.17-4.278-3.105-7.318-3.043zM24.15 32.27h13.699l-.002 5.646c-.001 3.105-.175 6.264-.385 7.021-1 3.6-4.99 5.823-8.531 4.75-1.644-.498-2.926-1.544-3.871-3.156-.872-1.487-.91-1.827-.91-7.908z" fill="none" stroke="#585858" stroke-width=".5"/><rect x="1" y="1" width="60" height="60" ry="10.737" fill="none" stroke="#585858" stroke-width="2"/><circle cx="31" cy="31.124" r="27.397" fill="none" stroke="#585858" stroke-width=".5"/><circle cx="31" cy="31.124" r="24.746" fill="none" stroke="#585858" stroke-width=".5"/><path d="M31 52.745a9.53 9.53 0 006.785-2.81 9.532 9.532 0 002.81-6.786V18.842c0-2.564-.998-4.974-2.81-6.786S33.563 9.246 31 9.246c-2.563 0-4.973.998-6.785 2.81s-2.81 4.222-2.81 6.786V43.149c0 2.563.999 4.973 2.81 6.785A9.53 9.53 0 0031 52.744zm-7.037-33.903c0-1.88.732-3.647 2.061-4.976 1.33-1.33 3.096-2.06 4.976-2.06s3.647.731 4.975 2.06a6.995 6.995 0 012.062 4.976v10.875H23.963zm0 24.308V32.275h14.074V43.15c0 1.88-.732 3.647-2.061 4.976A6.99 6.99 0 0131 50.186c-1.88 0-3.646-.732-4.975-2.06s-2.061-3.097-2.062-4.976z" fill="#fff"/><path d="M30.683 9.18c-3.654.074-5.219 1.422-6.521 2.544-1.303 1.122-2.645 3.11-2.735 5.01-.233 4.912 0 14.238 0 14.238 0 14.963.012 15.203.82 16.715 1.072 2.004 3.548 4.092 5.649 4.768 2.122.682 5.455.435 7.377-.545 1.951-.996 3.705-2.824 4.633-4.828.741-1.603.773-2.25.773-15.924 0-16.083.002-16.07-2.678-18.936-2.03-2.171-4.278-3.106-7.318-3.043zm.285 2.835c1.67.01 3.348.688 4.725 2.065 1.847 1.846 2.177 3.359 2.18 9.95l.001 5.647H24.13l.116-6.6c.109-6.227.165-6.67.988-7.867 1.458-2.119 3.588-3.208 5.734-3.195zM24.152 32.27H37.85l-.002 5.647c0 3.105-.174 6.264-.385 7.021-1 3.6-4.99 5.823-8.531 4.75-1.644-.498-2.926-1.544-3.871-3.156-.871-1.487-.91-1.827-.91-7.908z" fill="#2843ba" fill-rule="evenodd" stroke="#585858" stroke-width=".37"/><path d="M24.245 23.077c.11-6.228.165-6.672.988-7.867 2.592-3.768 7.311-4.278 10.459-1.131 1.847 1.847 2.178 3.36 2.18 9.952l.003 5.646H24.13z" fill="none" stroke="#585858" stroke-width=".37"/><path d="M28.932 49.686c-1.644-.498-2.926-1.543-3.87-3.156-.872-1.487-.911-1.826-.911-7.907v-6.354h13.698l-.002 5.646c-.001 3.105-.174 6.265-.385 7.023-1 3.6-4.99 5.821-8.53 4.748z" fill="#2843ba" stroke="#2843ba" stroke-width=".37"/><path d="M31 3.727A27.397 27.397 0 003.604 31.125 27.397 27.397 0 0031 58.521a27.397 27.397 0 0027.396-27.396A27.397 27.397 0 0031 3.727zm0 2.652a24.746 24.746 0 0124.746 24.746A24.746 24.746 0 0131 55.87 24.746 24.746 0 016.254 31.125 24.746 24.746 0 0131 6.38z" fill="#2843ba" stroke="#585858" stroke-width=".5"/><text x="64.164" y="28.101" fill="none" font-family="Geneva" font-size="31.936" stroke="#585858" style="font-variant-caps:normal;font-variant-east-asian:normal;font-variant-ligatures:normal;font-variant-numeric:normal;line-height:1.25"><tspan x="64.164" y="28.101">PKPD</tspan></text><text x="65.558" y="58.5" fill="#585858" font-family="Geneva" font-size="32.99" stroke-width=".825" style="font-variant-caps:normal;font-variant-east-asian:normal;font-variant-ligatures:normal;font-variant-numeric:normal;line-height:1.25"><tspan x="65.558" y="58.5">APP</tspan></text></svg>