<?xml version="1.0" encoding="UTF-8" standalone="no"?>
<svg
   viewBox="0 0 61.999997 62"
   version="1.1"
   id="svg30"
   sodipodi:docname="logo_pkpdapp.svg"
   inkscape:version="1.2.2 (732a01da63, 2022-12-09)"
   width="62"
   height="62"
   xmlns:inkscape="http://www.inkscape.org/namespaces/inkscape"
   xmlns:sodipodi="http://sodipodi.sourceforge.net/DTD/sodipodi-0.dtd"
   xmlns="http://www.w3.org/2000/svg"
   xmlns:svg="http://www.w3.org/2000/svg">
  <defs
     id="defs34" />
  <sodipodi:namedview
     id="namedview32"
     pagecolor="#ffffff"
     bordercolor="#000000"
     borderopacity="0.25"
     inkscape:showpageshadow="2"
     inkscape:pageopacity="0.0"
     inkscape:pagecheckerboard="0"
     inkscape:deskcolor="#d1d1d1"
     showgrid="false"
     inkscape:zoom="10.471894"
     inkscape:cx="72.002256"
     inkscape:cy="31.035455"
     inkscape:window-width="3840"
     inkscape:window-height="2054"
     inkscape:window-x="-11"
     inkscape:window-y="-11"
     inkscape:window-maximized="1"
     inkscape:current-layer="svg30" />
  <path
     d="m 35.271,51.911 c 1.951,-0.995 3.705,-2.823 4.633,-4.828 0.742,-1.603 0.774,-2.25 0.774,-15.924 0,-16.083 0.001,-16.071 -2.679,-18.936 -2.03,-2.171 -4.277,-3.106 -7.318,-3.043 -3.654,0.074 -5.218,1.422 -6.52,2.544 -1.303,1.122 -2.645,3.11 -2.735,5.01 -0.233,4.913 0,14.24 0,14.24 0,14.963 0.011,15.2 0.82,16.713 1.072,2.004 3.546,4.093 5.647,4.769 2.122,0.682 5.456,0.435 7.378,-0.545 z"
     fill="none"
     stroke="#585858"
     stroke-width="0.5"
     id="path2" />
  <path
     d="m 30.681,9.18 c -3.654,0.074 -5.219,1.422 -6.521,2.544 -1.303,1.122 -2.645,3.11 -2.735,5.01 -0.233,4.912 0,14.238 0,14.238 0,14.963 0.012,15.203 0.82,16.715 1.072,2.004 3.548,4.092 5.649,4.767 2.122,0.682 5.455,0.436 7.377,-0.545 1.951,-0.995 3.705,-2.823 4.633,-4.828 0.741,-1.602 0.773,-2.25 0.773,-15.924 0,-16.083 0.002,-16.07 -2.678,-18.936 -2.03,-2.17 -4.278,-3.105 -7.318,-3.043 z M 24.15,32.27 h 13.699 l -0.002,5.646 c -0.001,3.105 -0.175,6.264 -0.385,7.021 -1,3.6 -4.99,5.823 -8.531,4.75 -1.644,-0.498 -2.926,-1.544 -3.871,-3.156 -0.872,-1.487 -0.91,-1.827 -0.91,-7.908 z"
     fill="none"
     stroke="#585858"
     stroke-width="0.5"
     id="path4" />
  <rect
     x="1"
     y="1"
     width="60"
     height="60"
     ry="10.737"
     fill="none"
     stroke="#585858"
     stroke-width="2"
     id="rect6" />
  <circle
     cx="31"
     cy="31.124001"
     r="27.396999"
     fill="none"
     stroke="#585858"
     stroke-width="0.5"
     id="circle8" />
  <circle
     cx="31"
     cy="31.124001"
     r="24.746"
     fill="none"
     stroke="#585858"
     stroke-width="0.5"
     id="circle10" />
  <path
     d="m 31,52.745 a 9.53,9.53 0 0 0 6.785,-2.81 9.532,9.532 0 0 0 2.81,-6.786 V 18.842 c 0,-2.564 -0.998,-4.974 -2.81,-6.786 -1.812,-1.812 -4.222,-2.81 -6.785,-2.81 -2.563,0 -4.973,0.998 -6.785,2.81 -1.812,1.812 -2.81,4.222 -2.81,6.786 v 24.307 c 0,2.563 0.999,4.973 2.81,6.785 A 9.53,9.53 0 0 0 31,52.744 Z M 23.963,18.842 c 0,-1.88 0.732,-3.647 2.061,-4.976 1.33,-1.33 3.096,-2.06 4.976,-2.06 1.88,0 3.647,0.731 4.975,2.06 a 6.995,6.995 0 0 1 2.062,4.976 V 29.717 H 23.963 Z m 0,24.308 V 32.275 H 38.037 V 43.15 c 0,1.88 -0.732,3.647 -2.061,4.976 A 6.99,6.99 0 0 1 31,50.186 c -1.88,0 -3.646,-0.732 -4.975,-2.06 -1.329,-1.328 -2.061,-3.097 -2.062,-4.976 z"
     fill="#ffffff"
     id="path12" />
  <path
     d="m 30.683,9.18 c -3.654,0.074 -5.219,1.422 -6.521,2.544 -1.303,1.122 -2.645,3.11 -2.735,5.01 -0.233,4.912 0,14.238 0,14.238 0,14.963 0.012,15.203 0.82,16.715 1.072,2.004 3.548,4.092 5.649,4.768 2.122,0.682 5.455,0.435 7.377,-0.545 1.951,-0.996 3.705,-2.824 4.633,-4.828 0.741,-1.603 0.773,-2.25 0.773,-15.924 0,-16.083 0.002,-16.07 -2.678,-18.936 -2.03,-2.171 -4.278,-3.106 -7.318,-3.043 z m 0.285,2.835 c 1.67,0.01 3.348,0.688 4.725,2.065 1.847,1.846 2.177,3.359 2.18,9.95 l 0.001,5.647 H 24.13 l 0.116,-6.6 c 0.109,-6.227 0.165,-6.67 0.988,-7.867 1.458,-2.119 3.588,-3.208 5.734,-3.195 z M 24.152,32.27 H 37.85 l -0.002,5.647 c 0,3.105 -0.174,6.264 -0.385,7.021 -1,3.6 -4.99,5.823 -8.531,4.75 -1.644,-0.498 -2.926,-1.544 -3.871,-3.156 -0.871,-1.487 -0.91,-1.827 -0.91,-7.908 z"
     fill="#2843ba"
     fill-rule="evenodd"
     stroke="#585858"
     stroke-width="0.37"
     id="path14" />
  <path
     d="m 24.245,23.077 c 0.11,-6.228 0.165,-6.672 0.988,-7.867 2.592,-3.768 7.311,-4.278 10.459,-1.131 1.847,1.847 2.178,3.36 2.18,9.952 l 0.003,5.646 H 24.13 Z"
     fill="none"
     stroke="#585858"
     stroke-width="0.37"
     id="path16" />
  <path
     d="M 28.932,49.686 C 27.288,49.188 26.006,48.143 25.062,46.53 24.19,45.043 24.151,44.704 24.151,38.623 v -6.354 h 13.698 l -0.002,5.646 c -0.001,3.105 -0.174,6.265 -0.385,7.023 -1,3.6 -4.99,5.821 -8.53,4.748 z"
     fill="#2843ba"
     stroke="#2843ba"
     stroke-width="0.37"
     id="path18" />
  <path
     d="M 31,3.727 A 27.397,27.397 0 0 0 3.604,31.125 27.397,27.397 0 0 0 31,58.521 27.397,27.397 0 0 0 58.396,31.125 27.397,27.397 0 0 0 31,3.727 Z m 0,2.652 A 24.746,24.746 0 0 1 55.746,31.125 24.746,24.746 0 0 1 31,55.87 24.746,24.746 0 0 1 6.254,31.125 24.746,24.746 0 0 1 31,6.38 Z"
     fill="#2843ba"
     stroke="#585858"
     stroke-width="0.5"
     id="path20" />
</svg>
