<?xml version="1.0" encoding="UTF-8" standalone="no"?>
<svg
   xmlns:dc="http://purl.org/dc/elements/1.1/"
   xmlns:cc="http://creativecommons.org/ns#"
   xmlns:rdf="http://www.w3.org/1999/02/22-rdf-syntax-ns#"
   xmlns:svg="http://www.w3.org/2000/svg"
   xmlns="http://www.w3.org/2000/svg"
   xmlns:sodipodi="http://sodipodi.sourceforge.net/DTD/sodipodi-0.dtd"
   xmlns:inkscape="http://www.inkscape.org/namespaces/inkscape"
   inkscape:version="1.0 (4035a4f, 2020-05-01)"
   sodipodi:docname="logo_pkpdapp_with_text.svg"
   xml:space="preserve"
   enable-background="new 0 0 149.167 172.243"
   viewBox="0 0 144.0986 62.000001"
   height="62"
   width="144.0986"
   y="0px"
   x="0px"
   id="Layer_1"
   version="1.1"><metadata
   id="metadata32"><rdf:RDF><cc:Work
       rdf:about=""><dc:format>image/svg+xml</dc:format><dc:type
         rdf:resource="http://purl.org/dc/dcmitype/StillImage" /><dc:title></dc:title></cc:Work></rdf:RDF></metadata><defs
   id="defs30" /><sodipodi:namedview
   fit-margin-bottom="0"
   fit-margin-right="0"
   fit-margin-left="0"
   fit-margin-top="0"
   inkscape:current-layer="Layer_1"
   inkscape:window-maximized="0"
   inkscape:window-y="23"
   inkscape:window-x="0"
   inkscape:cy="31.275219"
   inkscape:cx="60.80943"
   inkscape:zoom="3.4467915"
   showguides="false"
   showgrid="false"
   id="namedview28"
   inkscape:window-height="776"
   inkscape:window-width="1440"
   inkscape:pageshadow="2"
   inkscape:pageopacity="0"
   guidetolerance="10"
   gridtolerance="10"
   objecttolerance="10"
   borderopacity="1"
   bordercolor="#666666"
   pagecolor="#ffffff"
   inkscape:document-rotation="0" />


<g
   id="g929"
   transform="matrix(0.45454545,0,0,0.45454545,-0.53399356,-8.4904543)"><path
     style="fill:none;fill-opacity:1;stroke:#585858;stroke-width:1.1;stroke-miterlimit:4;stroke-dasharray:none;stroke-opacity:1"
     d="m 78.771721,132.88235 c 4.292805,-2.19003 8.151881,-6.21141 10.193592,-10.62231 1.63166,-3.52503 1.700805,-4.94926 1.700805,-35.032811 0,-35.382975 0.0038,-35.355955 -5.892295,-41.65938 -4.467356,-4.775965 -9.410849,-6.83175 -16.09931,-6.695008 -8.039363,0.164361 -11.48055,3.129257 -14.346229,5.597898 -2.865679,2.468641 -5.817971,6.841842 -6.016368,11.023192 -0.512793,10.807444 0,31.326046 0,31.326046 0,32.919153 0.0257,33.442703 1.804541,36.768783 2.357882,4.40876 7.801662,9.00584 12.424336,10.49189 4.667874,1.5006 12.002024,0.95912 16.230928,-1.1983 z"
     id="path136"
     sodipodi:nodetypes="ssssszsssss" /><path
     id="path136-9"
     style="fill:none;fill-opacity:1;stroke:#585858;stroke-width:1.1;stroke-miterlimit:4;stroke-dasharray:none;stroke-opacity:1"
     d="m 68.673502,38.873093 c -8.039369,0.164362 -11.481586,3.130182 -14.347267,5.598824 -2.865669,2.468642 -5.817233,6.84013 -6.015625,11.021494 -0.5128,10.807434 0,31.324216 0,31.324216 0,32.919153 0.02585,33.446573 1.804689,36.772643 2.357879,4.40876 7.803882,9.00262 12.426561,10.48868 4.66787,1.5006 12.000389,0.95858 16.229297,-1.19882 4.292801,-2.19004 8.150479,-6.21098 10.192189,-10.62189 1.63166,-3.52501 1.701561,-4.94886 1.701561,-35.032403 0,-35.382974 0.0053,-35.354792 -5.891015,-41.65821 -4.467359,-4.775958 -9.41193,-6.831264 -16.10039,-6.694534 z m -14.36875,50.797648 h 15.06914 15.06914 l -0.0043,12.422279 c -0.002,6.83164 -0.383794,13.78126 -0.846483,15.44726 -2.199661,7.92015 -10.979711,12.81046 -18.76875,10.44999 -3.615911,-1.09579 -6.437486,-3.39633 -8.516406,-6.94375 -1.91694,-3.271 -2.002344,-4.0192 -2.002344,-17.39804 z" /><rect
     style="fill:none;fill-opacity:1;stroke:#585858;stroke-width:4.4;stroke-miterlimit:4;stroke-dasharray:none;stroke-opacity:1"
     id="rect105"
     width="132"
     height="132"
     x="3.3747859"
     y="20.879"
     ry="23.620613" /><circle
     cy="87.151909"
     cx="69.374786"
     id="path56-8"
     style="fill:none;stroke:#585858;stroke-width:1.1;stroke-miterlimit:4;stroke-dasharray:none;stroke-opacity:1"
     r="60.273285" /><circle
     style="fill:none;stroke:#585858;stroke-width:1.1;stroke-miterlimit:4;stroke-dasharray:none;stroke-opacity:1"
     id="path56"
     cx="69.374786"
     cy="87.151909"
     r="54.440388" /><g
     id="g50"
     transform="matrix(-0.11053414,0.11053414,-0.11053414,-0.11053414,125.9674,86.870862)"
     style="fill:#ffffff"><path
       id="path36"
       d="M 472.42969,39.5625 C 446.93359,14.050781 413.01562,0 376.94141,0 340.86328,0 306.95703,14.050781 281.44922,39.5625 L 160.50391,160.50391 39.554688,281.46094 C 14.050781,306.97266 0,340.89062 0,376.95703 0,413.02344 14.050781,446.94141 39.554688,472.4375 65.050781,497.94922 98.96875,512 135.04297,512 c 36.07422,0 69.98437,-14.05078 95.48828,-39.5625 L 351.48047,351.49609 472.42969,230.53906 c 25.5039,-25.51172 39.55078,-59.42969 39.55078,-95.49609 0,-36.066408 -14.04688,-69.984376 -39.55078,-95.48047 z M 205.07031,446.97656 c -18.71094,18.70703 -43.58203,29.01563 -70.02734,29.01563 -26.45703,0 -51.320314,-10.30469 -70.027345,-29.01563 -18.707031,-18.71094 -29.003906,-43.57031 -29.003906,-70.01562 0,-26.44532 10.304687,-51.32813 29.003906,-70.03516 L 173.23437,198.69922 313.28906,338.76953 Z M 446.96875,205.07812 338.75,313.30469 198.69531,173.23437 306.91406,65.023438 c 18.70703,-18.707032 43.57813,-29.015626 70.02735,-29.015626 26.45312,0 51.3164,10.304688 70.02343,29.015626 18.70703,18.710937 29.00391,43.570312 29.00391,70.015622 0,26.44531 -10.30078,51.32813 -29,70.03906 z m 0,0"
       style="fill:#ffffff" /></g><path
     id="path138-1"
     style="fill:#2843ba;fill-opacity:1;fill-rule:evenodd;stroke:#585858;stroke-width:0.814504;stroke-opacity:1"
     d="m 68.677235,38.873504 c -8.03937,0.16436 -11.48158,3.13018 -14.34727,5.59883 -2.86566,2.46864 -5.81723,6.84013 -6.01562,11.02149 -0.5128,10.80743 0,31.32422 0,31.32422 0,32.919146 0.0258,33.446566 1.80469,36.772636 2.35788,4.40876 7.80388,9.00262 12.42656,10.48868 4.66787,1.5006 12.00039,0.95856 16.2293,-1.19882 4.2928,-2.19006 8.15047,-6.21098 10.19218,-10.62189 1.63166,-3.52499 1.70157,-4.94888 1.70157,-35.032426 0,-35.38295 0.005,-35.35477 -5.89102,-41.65818 -4.46736,-4.77596 -9.41193,-6.83127 -16.10039,-6.69454 z m 0.62734,6.23907 c 3.67153,0.0227 7.36485,1.5125 10.39414,4.54179 4.06289,4.06287 4.79002,7.39022 4.79532,21.89257 l 0.004,12.42228 h -15.1164 -15.12071 l 0.25352,-14.51914 c 0.24064,-13.70114 0.36429,-14.67728 2.17422,-17.30782 3.20819,-4.66274 7.89509,-7.05883 12.61562,-7.02968 z m -14.99609,44.55858 h 15.06914 15.06914 l -0.004,12.422276 c -0.002,6.83164 -0.38379,13.78126 -0.84648,15.44725 -2.19966,7.92016 -10.97971,12.81047 -18.76875,10.45 -3.61581,-1.09579 -6.43749,-3.39633 -8.51641,-6.94375 -1.91694,-3.271 -2.00234,-4.0192 -2.00234,-17.39804 z" /><path
     style="fill:none;fill-opacity:1;stroke:#585858;stroke-width:0.814504;stroke-opacity:1"
     d="m 54.513646,69.44884 c 0.24065,-13.701129 0.363263,-14.677666 2.173199,-17.308208 5.703437,-8.28932 16.084758,-9.411681 23.008869,-2.48757 4.062876,4.062876 4.792518,7.392614 4.797821,21.894967 l 0.0045,12.421185 H 69.378341 54.258605 Z"
     id="path138" /><path
     style="fill:#2843ba;fill-opacity:1;stroke:#2843ba;stroke-width:0.814504;stroke-opacity:1"
     d="m 64.824543,127.98849 c -3.615911,-1.09581 -6.436356,-3.39542 -8.515277,-6.94283 -1.91694,-3.27101 -2.002878,-4.01744 -2.002878,-17.39629 V 89.670741 H 69.37471 84.443032 l -0.0046,12.421189 c -0.0025,6.83165 -0.38311,13.78427 -0.845805,15.45027 -2.199636,7.92014 -10.979104,12.80676 -18.768142,10.44629 z"
     id="path140" /><path
     id="path56-8-4"
     style="fill:#2843ba;fill-opacity:1;stroke:#585858;stroke-width:1.1;stroke-miterlimit:4;stroke-dasharray:none;stroke-opacity:1"
     d="M 69.37479,26.878399 A 60.273283,60.273283 0 0 0 9.1025209,87.154964 60.273283,60.273283 0 0 0 69.37479,147.42722 60.273283,60.273283 0 0 0 129.64705,87.154964 60.273283,60.273283 0 0 0 69.37479,26.878399 Z m 0,5.835156 A 54.440388,54.440388 0 0 1 123.81619,87.154964 54.440388,54.440388 0 0 1 69.37479,141.59207 54.440388,54.440388 0 0 1 14.933381,87.154964 54.440388,54.440388 0 0 1 69.37479,32.713555 Z" /></g><text
   xml:space="preserve"
   style="font-style:normal;font-variant:normal;font-weight:normal;font-stretch:normal;font-size:31.9361px;line-height:1.25;font-family:Geneva;-inkscape-font-specification:'Geneva, Normal';font-variant-ligatures:normal;font-variant-caps:normal;font-variant-numeric:normal;font-variant-east-asian:normal;fill:none;fill-opacity:1;stroke:#585858;stroke-width:1;stroke-miterlimit:4;stroke-dasharray:none;stroke-opacity:1"
   x="64.163795"
   y="28.100815"
   id="text933"><tspan
     sodipodi:role="line"
     id="tspan931"
     x="64.163795"
     y="28.100815"
     style="stroke-width:1;stroke-miterlimit:4;stroke-dasharray:none">PKPD</tspan></text><text
   xml:space="preserve"
   style="font-style:normal;font-variant:normal;font-weight:normal;font-stretch:normal;font-size:32.9897px;line-height:1.25;font-family:Geneva;-inkscape-font-specification:'Geneva, Normal';font-variant-ligatures:normal;font-variant-caps:normal;font-variant-numeric:normal;font-variant-east-asian:normal;fill:#585858;fill-opacity:1;stroke:none;stroke-width:0.824743"
   x="65.557556"
   y="58.500008"
   id="text937"><tspan
     sodipodi:role="line"
     id="tspan935"
     x="65.557556"
     y="58.500008"
     style="stroke-width:0.824743">APP</tspan></text></svg>
