<?xml version="1.0" encoding="UTF-8" standalone="no"?>
<svg
   xmlns:dc="http://purl.org/dc/elements/1.1/"
   xmlns:cc="http://creativecommons.org/ns#"
   xmlns:rdf="http://www.w3.org/1999/02/22-rdf-syntax-ns#"
   xmlns:svg="http://www.w3.org/2000/svg"
   xmlns="http://www.w3.org/2000/svg"
   xmlns:sodipodi="http://sodipodi.sourceforge.net/DTD/sodipodi-0.dtd"
   xmlns:inkscape="http://www.inkscape.org/namespaces/inkscape"
   version="1.1"
   id="Layer_1"
   x="0px"
   y="0px"
   width="144.0986"
   height="62"
   viewBox="0 0 144.0986 62.000001"
   enable-background="new 0 0 149.167 172.243"
   xml:space="preserve"
   sodipodi:docname="logo_pkpdapp_with_text.svg"
   inkscape:version="1.0 (4035a4f, 2020-05-01)"><metadata
   id="metadata32"><rdf:RDF><cc:Work
       rdf:about=""><dc:format>image/svg+xml</dc:format><dc:type
         rdf:resource="http://purl.org/dc/dcmitype/StillImage" /><dc:title /></cc:Work></rdf:RDF></metadata><defs
   id="defs30" /><sodipodi:namedview
   inkscape:document-rotation="0"
   pagecolor="#ffffff"
   bordercolor="#666666"
   borderopacity="1"
   objecttolerance="10"
   gridtolerance="10"
   guidetolerance="10"
   inkscape:pageopacity="0"
   inkscape:pageshadow="2"
   inkscape:window-width="1440"
   inkscape:window-height="776"
   id="namedview28"
   showgrid="false"
   showguides="false"
   inkscape:zoom="3.4467915"
   inkscape:cx="60.80943"
   inkscape:cy="31.275219"
   inkscape:window-x="0"
   inkscape:window-y="23"
   inkscape:window-maximized="0"
   inkscape:current-layer="Layer_1"
   fit-margin-top="0"
   fit-margin-left="0"
   fit-margin-right="0"
   fit-margin-bottom="0" />


<path
   style="fill:none;fill-opacity:1;stroke:#585858;stroke-width:0.5;stroke-miterlimit:4;stroke-dasharray:none;stroke-opacity:1"
   d="m 35.271334,51.910613 c 1.951275,-0.995468 3.7054,-2.823368 4.633451,-4.828322 0.741663,-1.602287 0.773093,-2.249664 0.773093,-15.924005 0,-16.083171 0.0017,-16.070889 -2.678316,-18.936082 -2.030616,-2.170893 -4.277659,-3.1053407 -7.317868,-3.0431853 -3.654256,0.074709 -5.218432,1.4223893 -6.521013,2.5444993 -1.302582,1.122109 -2.644533,3.109928 -2.734713,5.010542 -0.233088,4.912474 0,14.239111 0,14.239111 0,14.963251 0.01168,15.201229 0.820246,16.713083 1.071764,2.003982 3.54621,4.093564 5.647425,4.769041 2.121761,0.682091 5.455466,0.435964 7.377695,-0.544682 z"
   id="path136"
   sodipodi:nodetypes="ssssszsssss" /><path
   id="path136-9"
   style="fill:none;fill-opacity:1;stroke:#585858;stroke-width:0.5;stroke-miterlimit:4;stroke-dasharray:none;stroke-opacity:1"
   d="m 30.681234,9.1791333 c -3.654258,0.07471 -5.218902,1.4228097 -6.521485,2.5449197 -1.302576,1.12211 -2.644196,3.10915 -2.734375,5.00977 -0.233091,4.91247 0,14.23828 0,14.23828 0,14.963251 0.01175,15.202988 0.820314,16.714838 1.071763,2.003981 3.547219,4.0921 5.648436,4.767581 2.121759,0.682091 5.454723,0.435719 7.376953,-0.544918 1.951274,-0.995473 3.704764,-2.823173 4.632814,-4.828132 0.741663,-1.602277 0.773436,-2.249481 0.773436,-15.923819 0,-16.08317 0.0024,-16.07036 -2.677734,-18.93555 -2.030617,-2.17089 -4.27815,-3.1051197 -7.318359,-3.0429697 z m -6.53125,23.0898397 h 6.849609 6.849609 l -0.002,5.64649 c -9.09e-4,3.105291 -0.174452,6.264209 -0.384765,7.021482 -0.999846,3.600068 -4.990778,5.822936 -8.53125,4.749996 -1.643596,-0.498087 -2.92613,-1.543787 -3.871094,-3.15625 -0.871336,-1.486819 -0.910156,-1.826909 -0.910156,-7.9082 z" /><rect
   style="fill:none;fill-opacity:1;stroke:#585858;stroke-width:2;stroke-miterlimit:4;stroke-dasharray:none;stroke-opacity:1"
   id="rect105"
   width="60"
   height="60"
   x="1"
   y="1"
   ry="10.736642" /><circle
   cy="31.12405"
   cx="31"
   id="path56-8"
   style="fill:none;stroke:#585858;stroke-width:0.5;stroke-miterlimit:4;stroke-dasharray:none;stroke-opacity:1"
   r="27.396948" /><circle
   style="fill:none;stroke:#585858;stroke-width:0.5;stroke-miterlimit:4;stroke-dasharray:none;stroke-opacity:1"
   id="path56"
   cx="31"
   cy="31.12405"
   r="24.74563" /><g
   id="g50"
   transform="matrix(-0.05024279,0.05024279,-0.05024279,-0.05024279,56.723915,30.996301)"
   style="fill:#ffffff"><path
     id="path36"
     d="M 472.42969,39.5625 C 446.93359,14.050781 413.01562,0 376.94141,0 340.86328,0 306.95703,14.050781 281.44922,39.5625 L 160.50391,160.50391 39.554688,281.46094 C 14.050781,306.97266 0,340.89062 0,376.95703 0,413.02344 14.050781,446.94141 39.554688,472.4375 65.050781,497.94922 98.96875,512 135.04297,512 c 36.07422,0 69.98437,-14.05078 95.48828,-39.5625 L 351.48047,351.49609 472.42969,230.53906 c 25.5039,-25.51172 39.55078,-59.42969 39.55078,-95.49609 0,-36.066408 -14.04688,-69.984376 -39.55078,-95.48047 z M 205.07031,446.97656 c -18.71094,18.70703 -43.58203,29.01563 -70.02734,29.01563 -26.45703,0 -51.320314,-10.30469 -70.027345,-29.01563 -18.707031,-18.71094 -29.003906,-43.57031 -29.003906,-70.01562 0,-26.44532 10.304687,-51.32813 29.003906,-70.03516 L 173.23437,198.69922 313.28906,338.76953 Z M 446.96875,205.07812 338.75,313.30469 198.69531,173.23437 306.91406,65.023438 c 18.70703,-18.707032 43.57813,-29.015626 70.02735,-29.015626 26.45312,0 51.3164,10.304688 70.02343,29.015626 18.70703,18.710937 29.00391,43.570312 29.00391,70.015622 0,26.44531 -10.30078,51.32813 -29,70.03906 z m 0,0"
     style="fill:#ffffff" /></g><path
   id="path138-1"
   style="fill:#2843ba;fill-opacity:1;fill-rule:evenodd;stroke:#585858;stroke-width:0.370229;stroke-opacity:1"
   d="m 30.682931,9.1793201 c -3.654259,0.074709 -5.2189,1.4228089 -6.521486,2.5449229 -1.302573,1.122109 -2.644196,3.10915 -2.734373,5.009768 -0.233091,4.912468 0,14.238282 0,14.238282 0,14.963248 0.01173,15.202984 0.820314,16.714834 1.071763,2.003982 3.547218,4.0921 5.648436,4.767582 2.121759,0.682091 5.454723,0.435709 7.376955,-0.544918 1.951272,-0.995482 3.704759,-2.823173 4.632809,-4.828132 0.741663,-1.602268 0.77344,-2.249491 0.77344,-15.92383 0,-16.083159 0.0023,-16.07035 -2.677736,-18.935536 -2.030618,-2.170891 -4.27815,-3.1051229 -7.318359,-3.0429729 z m 0.285155,2.8359409 c 1.668877,0.01032 3.347659,0.6875 4.724609,2.06445 1.846768,1.846759 2.177282,3.359191 2.179691,9.951168 l 0.0018,5.646491 h -6.871091 -6.87305 l 0.115236,-6.599609 c 0.109382,-6.227791 0.165587,-6.671491 0.988282,-7.867191 1.458268,-2.119427 3.588677,-3.208559 5.734373,-3.195309 z m -6.816405,20.2539 h 6.849609 6.849609 l -0.0018,5.646489 c -9.09e-4,3.105291 -0.17445,6.264209 -0.384764,7.021477 -0.999845,3.600073 -4.990777,5.822941 -8.531249,4.75 -1.64355,-0.498086 -2.926132,-1.543786 -3.871096,-3.15625 -0.871336,-1.486818 -0.910154,-1.826909 -0.910154,-7.9082 z" /><path
   style="fill:none;fill-opacity:1;stroke:#585858;stroke-width:0.370229;stroke-opacity:1"
   d="m 24.244936,23.0772 c 0.109387,-6.227786 0.16512,-6.671666 0.987818,-7.867367 2.592471,-3.767873 7.311253,-4.278037 10.458577,-1.130714 1.846761,1.846762 2.178417,3.360279 2.180827,9.952258 l 0.002,5.645993 H 31.00157 24.128962 Z"
   id="path138" /><path
   style="fill:#2843ba;fill-opacity:1;stroke:#2843ba;stroke-width:0.370229;stroke-opacity:1"
   d="M 28.931708,49.686131 C 27.288112,49.188036 26.006091,48.142759 25.061127,46.5303 24.189791,45.043477 24.150728,44.704191 24.150728,38.622895 v -6.353922 h 6.849237 6.849237 l -0.0021,5.645995 c -0.0011,3.105295 -0.174141,6.265577 -0.384457,7.02285 -0.999835,3.600063 -4.990502,5.821254 -8.530974,4.748313 z"
   id="path140" /><path
   id="path56-8-4"
   style="fill:#2843ba;fill-opacity:1;stroke:#585858;stroke-width:0.5;stroke-miterlimit:4;stroke-dasharray:none;stroke-opacity:1"
   d="M 31.000002,3.7269997 A 27.396947,27.396947 0 0 0 3.6035159,31.125438 27.396947,27.396947 0 0 0 31.000002,58.521918 27.396947,27.396947 0 0 0 58.396483,31.125438 27.396947,27.396947 0 0 0 31.000002,3.7269997 Z m 0,2.6523436 A 24.745631,24.745631 0 0 1 55.746092,31.125438 24.745631,24.745631 0 0 1 31.000002,55.869577 24.745631,24.745631 0 0 1 6.2539068,31.125438 24.745631,24.745631 0 0 1 31.000002,6.3793433 Z" /><text
   id="text933"
   y="28.100815"
   x="64.163795"
   style="font-style:normal;font-variant:normal;font-weight:normal;font-stretch:normal;font-size:31.9361px;line-height:1.25;font-family:Geneva;-inkscape-font-specification:'Geneva, Normal';font-variant-ligatures:normal;font-variant-caps:normal;font-variant-numeric:normal;font-variant-east-asian:normal;fill:none;fill-opacity:1;stroke:#585858;stroke-width:1;stroke-miterlimit:4;stroke-dasharray:none;stroke-opacity:1"
   xml:space="preserve"><tspan
     style="stroke-width:1;stroke-miterlimit:4;stroke-dasharray:none"
     y="28.100815"
     x="64.163795"
     id="tspan931"
     sodipodi:role="line">PKPD</tspan></text><text
   id="text937"
   y="58.500008"
   x="65.557556"
   style="font-style:normal;font-variant:normal;font-weight:normal;font-stretch:normal;font-size:32.9897px;line-height:1.25;font-family:Geneva;-inkscape-font-specification:'Geneva, Normal';font-variant-ligatures:normal;font-variant-caps:normal;font-variant-numeric:normal;font-variant-east-asian:normal;fill:#585858;fill-opacity:1;stroke:none;stroke-width:0.824743"
   xml:space="preserve"><tspan
     style="stroke-width:0.824743"
     y="58.500008"
     x="65.557556"
     id="tspan935"
     sodipodi:role="line">APP</tspan></text></svg>
