<?xml version="1.0" encoding="UTF-8" standalone="no"?>
<svg
   xmlns:dc="http://purl.org/dc/elements/1.1/"
   xmlns:cc="http://creativecommons.org/ns#"
   xmlns:rdf="http://www.w3.org/1999/02/22-rdf-syntax-ns#"
   xmlns:svg="http://www.w3.org/2000/svg"
   xmlns="http://www.w3.org/2000/svg"
   xmlns:sodipodi="http://sodipodi.sourceforge.net/DTD/sodipodi-0.dtd"
   xmlns:inkscape="http://www.inkscape.org/namespaces/inkscape"
   version="1.1"
   id="Layer_1"
   x="0px"
   y="0px"
   width="48"
   height="48"
   viewBox="0 0 47.999999 48.000001"
   enable-background="new 0 0 149.167 172.243"
   xml:space="preserve"
   sodipodi:docname="logo_pkpdapp_with_text_no_boundary_square.svg"
   inkscape:version="1.0 (4035a4f, 2020-05-01)"
   inkscape:export-filename="/Users/david/Workspace/sabs-r3/pkpdapp/pkpdapp/pkpdapp/static/images/logo.png"
   inkscape:export-xdpi="2000"
   inkscape:export-ydpi="2000"><metadata
   id="metadata32"><rdf:RDF><cc:Work
       rdf:about=""><dc:format>image/svg+xml</dc:format><dc:type
         rdf:resource="http://purl.org/dc/dcmitype/StillImage" /><dc:title /></cc:Work></rdf:RDF></metadata><defs
   id="defs30" /><sodipodi:namedview
   inkscape:document-rotation="0"
   pagecolor="#ffffff"
   bordercolor="#666666"
   borderopacity="1"
   objecttolerance="10"
   gridtolerance="10"
   guidetolerance="10"
   inkscape:pageopacity="0"
   inkscape:pageshadow="2"
   inkscape:window-width="1440"
   inkscape:window-height="776"
   id="namedview28"
   showgrid="false"
   showguides="false"
   inkscape:zoom="3.4467915"
   inkscape:cx="14.517894"
   inkscape:cy="26.927844"
   inkscape:window-x="0"
   inkscape:window-y="23"
   inkscape:window-maximized="0"
   inkscape:current-layer="Layer_1"
   fit-margin-top="0"
   fit-margin-left="0"
   fit-margin-right="0"
   fit-margin-bottom="0" />


<g
   id="g876"
   transform="translate(1.3703751)"><path
     sodipodi:nodetypes="ssssszsssss"
     id="path136"
     d="m 12.097579,32.086471 c 0.731642,-0.373257 1.389362,-1.058639 1.73734,-1.810409 0.278091,-0.600787 0.289876,-0.843525 0.289876,-5.970802 0,-6.030482 6.37e-4,-6.025877 -1.004251,-7.100199 -0.761392,-0.813989 -1.603934,-1.164366 -2.743879,-1.14106 -1.3701852,0.02801 -1.9566824,0.533333 -2.4450931,0.954075 -0.488411,0.420742 -0.9915837,1.166086 -1.0253972,1.878733 -0.087398,1.841962 0,5.339041 0,5.339041 0,5.610562 0.00438,5.699793 0.3075562,6.266672 0.4018644,0.751405 1.3296729,1.534906 2.1175362,1.788181 0.7955669,0.255754 2.0455599,0.163467 2.7663119,-0.204232 z"
     style="fill:none;fill-opacity:1;stroke:#585858;stroke-width:0.187478;stroke-miterlimit:4;stroke-dasharray:none;stroke-opacity:1" /><path
     d="m 10.376493,16.064044 c -1.3701864,0.02801 -1.9568592,0.533491 -2.4452705,0.954233 -0.4884088,0.420742 -0.9914574,1.165794 -1.0252705,1.878443 -0.087399,1.841961 0,5.338729 0,5.338729 0,5.610562 0.00441,5.700453 0.3075817,6.26733 0.401864,0.751405 1.3300512,1.534358 2.1179153,1.787634 0.795566,0.255754 2.045281,0.163375 2.766033,-0.204321 0.731642,-0.373258 1.389124,-1.058565 1.737102,-1.810337 0.278091,-0.600783 0.290004,-0.843457 0.290004,-5.970732 0,-6.030482 9e-4,-6.025679 -1.004032,-7.1 -0.761392,-0.813988 -1.604118,-1.164283 -2.744063,-1.140979 z m -2.448932,8.657675 h 2.568302 2.568303 l -7.5e-4,2.117185 c -3.41e-4,1.164348 -0.06541,2.348804 -0.14427,2.632748 -0.374898,1.349867 -1.871323,2.183345 -3.1988439,1.781039 C 9.1040258,31.065931 8.6231319,30.673839 8.2688119,30.069236 7.9420992,29.511745 7.9275434,29.384226 7.9275434,27.104009 Z"
     style="fill:none;fill-opacity:1;stroke:#585858;stroke-width:0.187478;stroke-miterlimit:4;stroke-dasharray:none;stroke-opacity:1"
     id="path136-9" /><circle
     r="10.272652"
     style="fill:none;stroke:#585858;stroke-width:0.187478;stroke-miterlimit:4;stroke-dasharray:none;stroke-opacity:1"
     id="path56-8"
     cx="10.496016"
     cy="24.292423" /><circle
     r="9.2785244"
     cy="24.292423"
     cx="10.496016"
     id="path56"
     style="fill:none;stroke:#585858;stroke-width:0.187478;stroke-miterlimit:4;stroke-dasharray:none;stroke-opacity:1" /><path
     id="path36"
     d="m 10.496015,32.399239 c 0.960928,2.94e-4 1.864604,-0.373981 2.5442,-1.053577 0.67967,-0.67967 1.053724,-1.583125 1.053651,-2.544274 l 7.3e-5,-4.556865 -1.47e-4,-4.557233 c -1.47e-4,-0.961075 -0.374422,-1.864751 -1.053871,-2.5442 -0.67945,-0.67945 -1.583125,-1.053724 -2.543906,-1.053577 -0.9609279,-2.94e-4 -1.8646035,0.37398 -2.5442,1.053577 -0.6795964,0.679596 -1.0537239,1.583125 -1.0535768,2.5442 l -1.471e-4,4.556939 1.471e-4,4.557233 c 1.473e-4,0.961075 0.3744956,1.864677 1.0539447,2.544126 0.6794493,0.67945 1.5830514,1.053798 2.5438321,1.053651 z M 7.8575473,19.68729 c 7.37e-5,-0.704911 0.2744141,-1.367656 0.7726131,-1.865855 0.4984197,-0.49842 1.1609436,-0.772687 1.8658546,-0.772613 0.704911,7.4e-5 1.367214,0.274414 1.865413,0.772613 0.498199,0.498199 0.772834,1.161091 0.772981,1.865781 l 1.48e-4,4.077579 -5.2772304,-2.94e-4 z m 0,9.114172 -1.473e-4,-4.077579 5.27723,2.95e-4 -1.47e-4,4.077284 c 0,0.704837 -0.274341,1.367582 -0.772613,1.865855 C 11.863524,31.165663 11.201,31.43993 10.496089,31.439856 9.7911777,31.439782 9.1288746,31.165442 8.6306756,30.667243 8.1324767,30.169044 7.8577679,29.506226 7.8575473,28.801462 Z m 0,0"
     style="fill:#ffffff;stroke-width:0.0266421" /><path
     d="m 10.377129,16.064114 c -1.3701865,0.02801 -1.9568581,0.53349 -2.4452706,0.954234 -0.4884077,0.420741 -0.9914573,1.165794 -1.0252697,1.878443 -0.087399,1.841959 0,5.33873 0,5.33873 0,5.61056 0.0044,5.700451 0.3075817,6.267328 0.401864,0.751405 1.3300508,1.534358 2.1179153,1.787634 0.7955663,0.255754 2.0452813,0.163372 2.7660343,-0.204321 0.731641,-0.373262 1.389121,-1.058565 1.737099,-1.810337 0.278091,-0.60078 0.290006,-0.84346 0.290006,-5.970736 0,-6.030478 8.63e-4,-6.025676 -1.004033,-7.099994 C 12.3598,16.391106 11.517074,16.04081 10.377129,16.064114 Z m 0.106921,1.063353 c 0.625755,0.0039 1.255225,0.257782 1.77152,0.774078 0.692457,0.692453 0.816386,1.259549 0.817289,3.73125 l 6.75e-4,2.117187 H 10.497177 7.9200848 l 0.043208,-2.474564 c 0.041013,-2.335148 0.062088,-2.501516 0.3705623,-2.949851 0.5467864,-0.794692 1.3455962,-1.203068 2.1501379,-1.1981 z M 7.9281973,24.721789 H 10.4965 13.064802 l -6.75e-4,2.117186 c -3.41e-4,1.164347 -0.06541,2.348803 -0.144269,2.632745 -0.374898,1.349869 -1.871322,2.183347 -3.1988439,1.781041 C 9.1047551,31.066001 8.6238432,30.673909 8.2695232,30.069306 7.9428105,29.511815 7.9282554,29.384295 7.9282554,27.104079 Z"
     style="fill:#2843ba;fill-opacity:1;fill-rule:evenodd;stroke:#585858;stroke-width:0.13882;stroke-opacity:1"
     id="path138-1" /><path
     id="path138"
     d="m 7.9631638,21.275208 c 0.041015,-2.335146 0.061913,-2.501582 0.3703884,-2.949917 0.9720627,-1.412787 2.7413988,-1.604076 3.9215068,-0.423968 0.692454,0.692454 0.816811,1.259957 0.817714,3.731659 l 7.5e-4,2.117 H 10.496605 7.9196787 Z"
     style="fill:none;fill-opacity:1;stroke:#585858;stroke-width:0.13882;stroke-opacity:1" /><path
     id="path140"
     d="M 9.7204974,31.252388 C 9.1042211,31.065624 8.6235196,30.673691 8.2691996,30.06909 7.9424869,29.511596 7.92784,29.384379 7.92784,27.10416 v -2.382441 h 2.568163 2.568163 l -7.88e-4,2.117 c -4.12e-4,1.164349 -0.0653,2.349316 -0.144154,2.63326 -0.374894,1.349865 -1.871219,2.182714 -3.1987405,1.780409 z"
     style="fill:#2843ba;fill-opacity:1;stroke:#2843ba;stroke-width:0.13882;stroke-opacity:1" /><path
     d="M 10.496017,14.019733 A 10.272651,10.272651 0 0 0 0.22353823,24.292943 10.272651,10.272651 0 0 0 10.496017,34.56542 10.272651,10.272651 0 0 0 20.768493,24.292943 10.272651,10.272651 0 0 0 10.496017,14.019733 Z m 0,0.994512 a 9.2785243,9.2785243 0 0 1 9.278696,9.278698 9.2785243,9.2785243 0 0 1 -9.278696,9.277965 9.2785243,9.2785243 0 0 1 -9.2786986,-9.277965 9.2785243,9.2785243 0 0 1 9.2786986,-9.278698 z"
     style="fill:#2843ba;fill-opacity:1;stroke:#585858;stroke-width:0.187478;stroke-miterlimit:4;stroke-dasharray:none;stroke-opacity:1"
     id="path56-8-4" /><text
     xml:space="preserve"
     style="font-style:normal;font-variant:normal;font-weight:normal;font-stretch:normal;font-size:9.50309px;line-height:1.25;font-family:Geneva;-inkscape-font-specification:'Geneva, Normal';font-variant-ligatures:normal;font-variant-caps:normal;font-variant-numeric:normal;font-variant-east-asian:normal;fill:#cacaca;fill-opacity:1;stroke:#585858;stroke-width:0.297566;stroke-miterlimit:4;stroke-dasharray:none;stroke-opacity:1"
     x="21.343754"
     y="23.151106"
     id="text933"><tspan
       sodipodi:role="line"
       id="tspan931"
       x="21.343754"
       y="23.151106"
       style="fill:#cacaca;fill-opacity:1;stroke:#585858;stroke-width:0.297566;stroke-miterlimit:4;stroke-dasharray:none;stroke-opacity:1">PKPD</tspan></text><text
     xml:space="preserve"
     style="font-style:normal;font-variant:normal;font-weight:normal;font-stretch:normal;font-size:9.89576px;line-height:1.25;font-family:Geneva;-inkscape-font-specification:'Geneva, Normal';font-variant-ligatures:normal;font-variant-caps:normal;font-variant-numeric:normal;font-variant-east-asian:normal;fill:#585858;fill-opacity:1;stroke:#5a5a5a;stroke-width:0.247394;stroke-opacity:1"
     x="21.727287"
     y="32.784428"
     id="text937"><tspan
       sodipodi:role="line"
       id="tspan935"
       x="21.727287"
       y="32.784428"
       style="fill:#585858;fill-opacity:1;stroke:#5a5a5a;stroke-width:0.247394;stroke-opacity:1">APP</tspan></text></g></svg>
