<?xml version="1.0" encoding="UTF-8" standalone="no"?>
<svg
   xmlns:dc="http://purl.org/dc/elements/1.1/"
   xmlns:cc="http://creativecommons.org/ns#"
   xmlns:rdf="http://www.w3.org/1999/02/22-rdf-syntax-ns#"
   xmlns:svg="http://www.w3.org/2000/svg"
   xmlns="http://www.w3.org/2000/svg"
   xmlns:sodipodi="http://sodipodi.sourceforge.net/DTD/sodipodi-0.dtd"
   xmlns:inkscape="http://www.inkscape.org/namespaces/inkscape"
   inkscape:version="1.0 (4035a4f, 2020-05-01)"
   sodipodi:docname="logo_pkpdapp.svg"
   xml:space="preserve"
   enable-background="new 0 0 149.167 172.243"
   viewBox="0 0 149.167 172.243"
   height="172.243px"
   width="149.167px"
   y="0px"
   x="0px"
   id="Layer_1"
   version="1.1"><metadata
   id="metadata32"><rdf:RDF><cc:Work
       rdf:about=""><dc:format>image/svg+xml</dc:format><dc:type
         rdf:resource="http://purl.org/dc/dcmitype/StillImage" /><dc:title /></cc:Work></rdf:RDF></metadata><defs
   id="defs30" /><sodipodi:namedview
   inkscape:current-layer="Layer_1"
   inkscape:window-maximized="0"
   inkscape:window-y="23"
   inkscape:window-x="0"
   inkscape:cy="79.896695"
   inkscape:cx="-46.145362"
   inkscape:zoom="1.2277412"
   showguides="false"
   showgrid="false"
   id="namedview28"
   inkscape:window-height="776"
   inkscape:window-width="1440"
   inkscape:pageshadow="2"
   inkscape:pageopacity="0"
   guidetolerance="10"
   gridtolerance="10"
   objecttolerance="10"
   borderopacity="1"
   bordercolor="#666666"
   pagecolor="#ffffff"
   inkscape:document-rotation="0" />


<rect
   ry="23.620613"
   y="20.879"
   x="9"
   height="132"
   width="132"
   id="rect105"
   style="fill:#585858;fill-opacity:1;stroke-width:0.929367" /><circle
   r="60.273285"
   style="fill:#ffffff;stroke-width:0.514429"
   id="path56-8"
   cx="75.273285"
   cy="87.151909" /><circle
   r="54.440388"
   cy="87.151909"
   cx="75.273285"
   id="path56"
   style="fill:#4d4d4d;stroke-width:0.514429" /><g
   style="fill:#ffffff"
   transform="matrix(-0.11053414,0.11053414,-0.11053414,-0.11053414,131.5889,86.870862)"
   id="g50"><path
     style="fill:#ffffff"
     d="M 472.42969,39.5625 C 446.93359,14.050781 413.01562,0 376.94141,0 340.86328,0 306.95703,14.050781 281.44922,39.5625 L 160.50391,160.50391 39.554688,281.46094 C 14.050781,306.97266 0,340.89062 0,376.95703 0,413.02344 14.050781,446.94141 39.554688,472.4375 65.050781,497.94922 98.96875,512 135.04297,512 c 36.07422,0 69.98437,-14.05078 95.48828,-39.5625 L 351.48047,351.49609 472.42969,230.53906 c 25.5039,-25.51172 39.55078,-59.42969 39.55078,-95.49609 0,-36.066408 -14.04688,-69.984376 -39.55078,-95.48047 z M 205.07031,446.97656 c -18.71094,18.70703 -43.58203,29.01563 -70.02734,29.01563 -26.45703,0 -51.320314,-10.30469 -70.027345,-29.01563 -18.707031,-18.71094 -29.003906,-43.57031 -29.003906,-70.01562 0,-26.44532 10.304687,-51.32813 29.003906,-70.03516 L 173.23437,198.69922 313.28906,338.76953 Z M 446.96875,205.07812 338.75,313.30469 198.69531,173.23437 306.91406,65.023438 c 18.70703,-18.707032 43.57813,-29.015626 70.02735,-29.015626 26.45312,0 51.3164,10.304688 70.02343,29.015626 18.70703,18.710937 29.00391,43.570312 29.00391,70.015622 0,26.44531 -10.30078,51.32813 -29,70.03906 z m 0,0"
     id="path36" /></g><path
   id="path136"
   d="m 61.951953,139.34029 c -8.787077,-2.30221 -16.783228,-6.85174 -23.802369,-13.54273 -7.091482,-6.75994 -11.38171,-13.52142 -14.395461,-22.6875 -3.082888,-9.376373 -3.082888,-22.389288 0,-31.765657 2.909888,-8.850198 7.251576,-15.952165 13.65842,-22.341917 6.227995,-6.211379 12.050138,-9.89348 20.426059,-12.918061 5.329704,-1.924579 7.160066,-2.159954 16.969866,-2.18223 9.146176,-0.02077 11.954869,0.278905 16.69733,1.781531 16.699682,5.291214 30.737972,19.756931 35.767672,36.856678 4.59757,15.630641 0.95625,33.854676 -9.53425,47.716876 -12.43185,16.42751 -35.632232,24.36361 -55.787267,19.08301 z m 22.546471,-6.45794 c 4.292805,-2.19003 8.151881,-6.21141 10.193592,-10.62231 1.63166,-3.52503 1.700805,-4.94926 1.700805,-35.032811 0,-35.382975 0.0038,-35.355955 -5.892295,-41.65938 -4.467356,-4.775965 -9.410849,-6.83175 -16.09931,-6.695008 -8.039363,0.164361 -13.976659,3.689495 -18.138686,10.76943 l -2.223911,3.783047 v 33.394659 c 0,32.919153 0.0257,33.442703 1.804541,36.768783 2.357882,4.40876 7.801662,9.00584 12.424336,10.49189 4.667874,1.5006 12.002024,0.95912 16.230928,-1.1983 z"
   style="fill:#585858;fill-opacity:1;stroke-width:0.814504" /><path
   id="path138"
   d="m 60.29961,69.44884 c 0.24065,-13.701129 0.363263,-14.677666 2.173199,-17.308208 5.703437,-8.28932 16.084758,-9.411681 23.008869,-2.48757 4.062876,4.062876 4.792518,7.392614 4.797821,21.894967 l 0.0045,12.421185 H 75.164305 60.044569 Z"
   style="fill:#585858;fill-opacity:1;stroke-width:0.814504" /><path
   id="path140"
   d="m 70.665553,127.98849 c -3.615911,-1.09581 -6.436356,-3.39542 -8.515277,-6.94283 -1.91694,-3.27101 -2.002878,-4.01744 -2.002878,-17.39629 V 89.670741 H 75.21572 90.284042 l -0.0046,12.421189 c -0.0025,6.83165 -0.38311,13.78427 -0.845805,15.45027 -2.199636,7.92014 -10.979104,12.80676 -18.768142,10.44629 z"
   style="fill:#585858;fill-opacity:1;stroke-width:0.814504" /></svg>
